<svg width="16" height="17" viewBox="0 0 16 17" fill="none" xmlns="http://www.w3.org/2000/svg">
<path d="M12.9896 2.49512H2.99684C2.44474 2.49512 1.99756 2.94229 1.99756 3.49439V13.4872C1.99756 14.0393 2.44474 14.4864 2.99684 14.4864H8.49286V9.9897H6.99394V7.99114H8.49286V6.69858C8.49286 5.1497 9.43868 4.30631 10.8207 4.30631C11.4827 4.30631 12.0513 4.35577 12.2172 4.37776V5.99658L11.2589 5.99708C10.5074 5.99708 10.362 6.35433 10.362 6.87795V7.99114H12.5804L12.0808 9.9897H10.362V14.4864H12.9896C13.5417 14.4864 13.9889 14.0393 13.9889 13.4872V3.49439C13.9889 2.94229 13.5417 2.49512 12.9896 2.49512Z" fill="#111111" fill-opacity="0.5"/>
</svg>
