<svg width="17" height="17" viewBox="0 0 17 17" fill="none" xmlns="http://www.w3.org/2000/svg">
<path d="M8.92567 4.12133C7.5027 4.12133 7.33393 4.12666 6.77212 4.15242C6.16544 4.17995 5.60274 4.30164 5.16972 4.73466C4.7367 5.16768 4.61501 5.73039 4.58747 6.33706C4.56172 6.89887 4.55639 7.06764 4.55639 8.49061C4.55639 9.91358 4.56172 10.0823 4.58747 10.6442C4.61501 11.2508 4.7367 11.8135 5.16972 12.2466C5.60274 12.6796 6.16544 12.8013 6.77212 12.8288C7.33393 12.8546 7.5027 12.8599 8.92567 12.8599C10.3486 12.8599 10.5174 12.8546 11.0792 12.8288C11.6859 12.8013 12.2486 12.6796 12.6816 12.2466C13.1146 11.8135 13.2363 11.2508 13.2639 10.6442C13.2896 10.0823 13.295 9.91358 13.295 8.49061C13.295 7.06764 13.2896 6.89887 13.2639 6.33706C13.2363 5.73039 13.1146 5.16768 12.6816 4.73466C12.2486 4.30164 11.6859 4.17995 11.0792 4.15242C10.5174 4.12666 10.3486 4.12133 8.92567 4.12133ZM8.92567 3.16113C10.3731 3.16113 10.5547 3.16735 11.1232 3.19311C11.9892 3.23264 12.75 3.44493 13.3607 4.0556C13.9714 4.66627 14.1836 5.42705 14.2232 6.29309C14.2489 6.86157 14.2551 7.04321 14.2551 8.49061C14.2551 9.93801 14.2489 10.1197 14.2232 10.6881C14.1836 11.5542 13.9714 12.315 13.3607 12.9256C12.75 13.5363 11.9892 13.7486 11.1232 13.7881C10.5547 13.8139 10.3731 13.8201 8.92567 13.8201C7.47827 13.8201 7.29663 13.8139 6.72815 13.7881C5.86211 13.7486 5.10132 13.5363 4.49066 12.9256C3.87999 12.315 3.6677 11.5542 3.62817 10.6881C3.60241 10.1197 3.59619 9.93801 3.59619 8.49061C3.59619 7.04321 3.60241 6.86157 3.62817 6.29309C3.6677 5.42705 3.87999 4.66627 4.49066 4.0556C5.10132 3.44493 5.86211 3.23264 6.72815 3.19311C7.29663 3.16735 7.47827 3.16113 8.92567 3.16113ZM8.92567 5.75392C10.437 5.75392 11.6624 6.97926 11.6624 8.49061C11.6624 10.002 10.437 11.2273 8.92567 11.2273C7.41432 11.2273 6.18898 10.002 6.18898 8.49061C6.18898 6.97926 7.41432 5.75392 8.92567 5.75392ZM8.92567 10.2671C9.90674 10.2671 10.7022 9.47168 10.7022 8.49061C10.7022 7.50954 9.90674 6.71412 8.92567 6.71412C7.9446 6.71412 7.14918 7.50954 7.14918 8.49061C7.14918 9.47168 7.9446 10.2671 8.92567 10.2671ZM11.7707 6.2851C11.4175 6.2851 11.1312 5.99876 11.1312 5.64556C11.1312 5.29235 11.4175 5.00602 11.7707 5.00602C12.1239 5.00602 12.4103 5.29235 12.4103 5.64556C12.4103 5.99876 12.1239 6.2851 11.7707 6.2851Z" fill="#111111" fill-opacity="0.5"/>
</svg>
