<svg width="17" height="17" viewBox="0 0 17 17" fill="none" xmlns="http://www.w3.org/2000/svg">
<path fill-rule="evenodd" clip-rule="evenodd" d="M15.6336 4.74426C15.1589 4.98159 14.6843 5.0607 14.1305 5.13981C14.6843 4.82337 15.0798 4.34871 15.238 3.71584C14.7634 4.03227 14.2096 4.19049 13.5767 4.34871C13.1021 3.87405 12.3901 3.55762 11.6781 3.55762C10.3333 3.55762 9.14661 4.74426 9.14661 6.16823C9.14661 6.40556 9.14661 6.56378 9.22572 6.72199C7.08977 6.64289 5.11203 5.61446 3.84628 4.03227C3.60895 4.42782 3.52984 4.82337 3.52984 5.37713C3.52984 6.24734 4.0045 7.03843 4.71648 7.51309C4.32093 7.51309 3.92539 7.35487 3.52984 7.19665C3.52984 8.4624 4.40004 9.49082 5.58669 9.72815C5.34936 9.80726 5.11203 9.80726 4.8747 9.80726C4.71648 9.80726 4.55826 9.80726 4.40004 9.72815C4.71648 10.7566 5.6658 11.5477 6.85244 11.5477C5.98223 12.2597 4.8747 12.6552 3.60895 12.6552C3.37162 12.6552 3.2134 12.6552 2.97607 12.6552C4.16272 13.3672 5.50758 13.8418 6.93155 13.8418C11.6781 13.8418 14.2887 9.88637 14.2887 6.48467C14.2887 6.40556 14.2887 6.24734 14.2887 6.16823C14.8425 5.77268 15.3171 5.29802 15.6336 4.74426Z" fill="#111111" fill-opacity="0.5"/>
</svg>
